# xmcd
#
# Track frame offsets:
# 150
# 18802
# 36084
# 55945
# 77644
# 92400
# 109889
# 125186
# 143690
# 158201
# 171858
# 188956
# 205342
#
# Disc length: 2896 seconds
#
# Revision: 0
# Processed by: cddbd v1.5.2PL0 Copyright (c) Steve Scherf et al.
# Submitted via: Audion 3.0.2 (http://www.panic.com/audion/)
#
DISCID=ab0b4e0d
DTITLE=Vitô Rodrigues - Reconciliation
DYEAR=1900
DGENRE=
TTITLE0=cabo verde
TTITLE1=vida sabe
TTITLE2=mae bia
TTITLE3=uma lagrimas te entrego
TTITLE4=Ilusao
TTITLE5=Amor
TTITLE6=Eterno combate
TTITLE7=Ka bou straga bu vida cindy
TTITLE8=Eden
TTITLE9=Chablen
TTITLE10=Nos diferenca
TTITLE11=Change your life
TTITLE12=Um sonho
EXTD=
EXTT0=
EXTT1=
EXTT2=
EXTT3=
EXTT4=
EXTT5=
EXTT6=
EXTT7=
EXTT8=
EXTT9=
EXTT10=
EXTT11=
EXTT12=
PLAYORDER=
